<?xml version="1.0" encoding="utf-8"?>
<!-- Generator: Adobe Illustrator 19.0.1, SVG Export Plug-In . SVG Version: 6.00 Build 0)  -->
<svg version="1.1" id="Layer_1" xmlns="http://www.w3.org/2000/svg" xmlns:xlink="http://www.w3.org/1999/xlink" x="0px" y="0px"
	 viewBox="0 0 24 24" style="enable-background:new 0 0 24 24;" xml:space="preserve">
<g>
	<polygon points="13,17 15,17 15,15 17,15 17,13 15,13 15,11 13,11 13,13 11,13 11,15 13,15 	"/>
	<path d="M19,3h-1V1h-2v2H8V1H6v2H5C3.9,3,3,3.9,3,5l0,14c0,1.1,0.9,2,2,2h14c1.1,0,2-0.9,2-2V5C21,3.9,20.1,3,19,3z M19,19H5V8h14
		V19z"/>
</g>
</svg>
