<?xml version="1.0" encoding="utf-8"?>
<!-- Generator: Adobe Illustrator 19.0.1, SVG Export Plug-In . SVG Version: 6.00 Build 0)  -->
<svg version="1.1" id="Layer_1" xmlns="http://www.w3.org/2000/svg" xmlns:xlink="http://www.w3.org/1999/xlink" x="0px" y="0px"
	 viewBox="0 0 160 64" style="enable-background:new 0 0 160 64;" xml:space="preserve">
<style type="text/css">
	.st0{fill:#FFFFFF;}
	.st1{opacity:0.5;}
</style>
<g>
	<path class="st0" d="M40.4,34.8c-0.7,2.2-2.3,5.4-4.8,5.4c-3.1,0-3.1-5.9-3-7.3c5.2-0.8,7.2-8.5,2.6-8.5c-5.6,0-7.8,6.9-6.5,11.9
		c-0.9,1.5-2.3,2.9-4.1,2.9c-3.1,0-3.1-4.9-3-6.3c5.2-0.8,6.9-6.6,2.3-6.6c-5.5,0-7.6,5.8-6.2,10c-0.5,1-1.2,1.8-2,2.2
		c0.1-0.2,0.2-0.7,0.2-1.1c0.2-3.2-2.4-6.1-4.4-7.7c2.8-2.8,2.2-4.5-0.3-4.5c-3.2,0-3.8,4-2.2,6.4c-0.4,0.5-0.9,1.1-1.4,3.2
		c-0.2,1,0.6,0.9,0.8,0c0.2-1,0.7-2.1,1.1-2.6c1.1,1.6,2.8,4.1,2.8,5.5c0,2.1-1.3,2.7-2.1,2.7c-2,0-1.2-3.3,1-1.9
		c0.7-0.6,0.1-1.7-1.1-1.7c-2.7,0-3.3,5.2,1.2,5.2c3.3,0,5.6-2,6.9-4.5c0.9,1.7,2.5,3,4.9,3c3,0,4.8-1.6,6-3.1c1,2.3,2.8,4,5.6,4
		c4.1,0,5.7-3.3,6.5-6.6C41.3,34.1,40.6,34.1,40.4,34.8z M11.3,25.9c1.8,0,1.8,1.4-0.2,3.2C9.2,27.4,10.3,25.9,11.3,25.9z M24,27.1
		c0.7-0.3,1.3,2.9-2.4,4.8C21.9,29.5,23.1,27.5,24,27.1z M35.2,25.2c0.7-0.3,1,4.9-2.6,6.7C32.9,29.5,34.4,25.5,35.2,25.2z"/>
	<path class="st0" d="M88.4,34.9C88,36.3,87,39,86.1,39c-1.9,0-0.7-6.1-0.7-10.2c0-3.8-5.3-1.9-5.3-1.9c1.2,0.2,1,2.8,0.8,5.7
		c-0.6,3-1.9,6.6-3,6.7c-2.3,0.3-0.2-6.1-1-9.9c-0.7-3.5-4.5-1-4.5-1c1.2-0.3,0.3,3.6,0.7,6.9c-0.5,0.9-1.6,1.3-2.6,0.8
		c0.6-2,0.4-8.2-1.2-8.5c-0.2,0-0.4,0-0.5,0.1c0.1-1.5-0.6-2.6-2.1-2.6c-3.5,0-5.3,5.9-4.7,10.6c-0.6,2.3-1.6,6.2-3.7,7.9
		c1.5-5,1.9-14.4,0.3-17.4c-1.2-2.1-4.7-1-4.7-1c0.6,0.7,1.6,4.9,1.7,7.9c0.1,2.9,0.2,6.6-1.6,6.6c-2.3,0-0.4-6.1-1.1-9.9
		c-0.7-3.5-4.6-1.2-4.6-1.2c2.2-0.4-3.3,11.8,5.9,11.8c1.1,0,1.5-1,1.9-1.9c0,2.1,0,4.6-0.5,6.5c-0.6,0.3-1.2,0.6-2,1
		c-5.6,2.6-5.3,5-3.1,5c3.4,0,6.1-2.6,7.5-6.1c2.4-1.6,3.4-4.1,4.3-7.3c0.6,2.2,1.9,3.7,3.9,3.7c2.6,0,3.6-2.2,4.1-4.3
		c0.7,0.4,2.1,0.4,3-0.5c0.5,2.2,1.7,3.9,4.9,3.5c1-0.1,1.9-1.7,2.6-3.7c0,2.9,0.9,5.4,3.3,5.4c2.6,0.1,4.3-3.3,5.1-6.7
		C89.3,34.3,88.6,34.3,88.4,34.9z M50.3,50c-1.9,0,1.8-2.9,4.9-4.2C54.3,48.3,52.7,50,50.3,50z M67.3,28.1c0.5,0-0.5,3-2,5.4
		C65.4,31.2,66.1,28.1,67.3,28.1z M67.1,40.1c-1.2,0-1.6-3.3-1.7-5.6c1-1.4,2.2-3.7,2.6-5c-0.2,2.4,0.1,5.6,1.7,7.1
		C69.3,38.2,68,40.1,67.1,40.1z M70,35.6c-1.4-1.6-1.5-7.2-0.7-7.3C70,28.2,70.5,32.9,70,35.6z"/>
	<path class="st0" d="M125.5,34.8c-0.8,2.7-2.1,4.1-3.4,4.1c-2,0,1.2-16.8,1.4-20.1c0.1-2-0.9-3.7-3.1-3.4c-3.3,1-3.6,12-2.2,16.1
		c-0.1,0.9-0.3,2.1-0.4,3.5c-0.8,2.7-2.3,6.3-3.6,6.3c-2,0,1.9-21.4,2.1-24.7c0.2-1.9-1.1-3.6-3.1-3.4c-3.3,1-4.3,14.1-2.9,18.2
		c-0.1,0.5-0.2,1.1-0.2,1.5c-0.2,1.5-0.4,3.1-0.4,4.6c-0.5,1.1-1.1,1.7-1.6,1.7c-1.6-0.2-0.1-5.1-0.4-7.6c-0.5-4-4.5-1.8-4.5-1.8
		c0.6,0.9,0.9,2.1,0.9,3.4c-0.2,2.3-0.9,5.5-2.6,5.5c-2.2,0-1.1-10.6,2.9-10.6c1.3,0,1.8,0.6,1.8,0.6c0.2-0.8-0.9-2.1-3.2-2.1
		c-7.7,0-9.2,13.6-3.2,13.6c1.7,0,3-0.8,3.8-2.2c-0.1,2.2,0.1,4.3,2,4.3h0c0.1,0,0.2,0,0.3,0c0.2,0,0.4-0.3,0.5-0.3
		c1.2-0.3,2.3-1.3,3.1-2.5c0.1,3.2,0.6,5,3.3,5c0.1,0,0-0.1,0-0.1v0c2,0,3.6-3.1,4.7-6.2c0.4,3.2,1.9,3.9,3.2,3.9c0.1,0,0.2,0,0.2,0
		v0c2,0,4.4-3.4,5.2-7C126.4,34.1,125.7,34.1,125.5,34.8z M110.7,28.6c-0.7-2.4,0.3-14.5,2.6-14.5C114,14.1,111.7,24.1,110.7,28.6z
		 M118.6,28.8c-0.7-2.4-0.4-12.4,1.9-12.4C121.2,16.4,119.5,24.3,118.6,28.8z"/>
</g>
<g class="st1">
	<path class="st0" d="M142.1,24.1c1.2,0,2.3,0.2,3.4,0.6c1.1,0.4,2,1,2.8,1.8c0.8,0.8,1.5,1.8,1.9,2.9c0.5,1.1,0.7,2.4,0.7,3.8
		c0,0.2,0,0.5,0,0.9c0,0.4-0.1,0.8-0.2,1.2s-0.2,0.8-0.4,1.3c-0.2,0.4-0.4,0.8-0.6,1.2c-0.3,0.4-0.6,0.6-1,0.9
		c-0.4,0.2-0.9,0.3-1.4,0.3c-0.4,0-0.8-0.1-1-0.2c-0.3-0.1-0.5-0.3-0.6-0.5c-0.2-0.2-0.3-0.4-0.3-0.7c-0.1-0.3-0.1-0.5-0.1-0.8
		c-0.5,0.5-1.1,0.9-1.8,1.2c-0.7,0.3-1.5,0.5-2.4,0.5c-1.2,0-2.1-0.3-2.7-0.9c-0.6-0.6-1-1.4-1-2.3c0-0.6,0.1-1.2,0.4-1.6
		c0.3-0.4,0.6-0.8,1.1-1s0.9-0.4,1.5-0.6c0.5-0.1,1.1-0.2,1.6-0.2c0.7,0,1.3,0.1,1.8,0.2c0.5,0.1,0.9,0.3,1.2,0.3c0-0.5,0-1-0.1-1.5
		c-0.1-0.4-0.2-0.8-0.5-1.1c-0.2-0.3-0.5-0.6-0.9-0.7c-0.4-0.2-0.9-0.3-1.4-0.3c-0.6,0-1.3,0.1-1.8,0.3c-0.6,0.2-1.1,0.5-1.5,0.8
		l-0.5-1.2c0.6-0.4,1.2-0.7,1.9-0.9c0.7-0.2,1.4-0.3,2.2-0.3c0.9,0,1.7,0.2,2.2,0.5c0.6,0.3,1,0.7,1.2,1.2c0.3,0.5,0.5,1,0.5,1.6
		c0.1,0.6,0.1,1.2,0.1,1.7v2.9c0,0.4,0,0.7,0,1c0,0.3,0.1,0.6,0.2,0.8c0.1,0.2,0.2,0.4,0.4,0.5c0.2,0.1,0.4,0.2,0.7,0.2
		c0.5,0,0.9-0.2,1.2-0.5c0.3-0.3,0.6-0.7,0.7-1.2c0.2-0.5,0.3-1,0.4-1.5c0.1-0.5,0.1-1,0.1-1.4c0-1.2-0.2-2.2-0.6-3.2
		c-0.4-1-1-1.8-1.7-2.6c-0.7-0.7-1.6-1.3-2.5-1.7c-1-0.4-2-0.6-3.2-0.6c-1.1,0-2.2,0.2-3.1,0.6c-1,0.4-1.8,1-2.5,1.7
		c-0.7,0.7-1.3,1.5-1.7,2.5c-0.4,1-0.6,2.1-0.6,3.2c0,1.1,0.2,2.2,0.6,3.1c0.4,1,0.9,1.8,1.6,2.6c0.7,0.7,1.5,1.3,2.5,1.7
		c1,0.4,2,0.6,3.1,0.6c0.7,0,1.4-0.1,2-0.3c0.6-0.2,1.2-0.4,1.8-0.7l0.3,0.9c-0.7,0.3-1.3,0.6-2,0.7c-0.7,0.2-1.4,0.2-2.1,0.2
		c-1.2,0-2.4-0.2-3.4-0.7c-1.1-0.4-2-1.1-2.8-1.9s-1.4-1.8-1.9-2.9c-0.5-1.1-0.7-2.3-0.7-3.6c0-1.4,0.3-2.6,0.8-3.7
		c0.5-1.1,1.2-2,2-2.8c0.8-0.8,1.8-1.4,2.9-1.8C139.7,24.3,140.9,24.1,142.1,24.1z M143.5,36.8c0.6-0.3,1-0.6,1.2-1
		c0.2-0.4,0.3-0.8,0.3-1.2v-0.9c-0.2,0-0.6-0.1-1.1-0.3c-0.5-0.2-1.2-0.2-1.9-0.2c-0.4,0-0.8,0-1.2,0.1c-0.4,0.1-0.7,0.2-1,0.4
		s-0.5,0.4-0.7,0.6c-0.2,0.3-0.3,0.6-0.3,1c0,0.6,0.2,1.1,0.7,1.5c0.4,0.4,1,0.6,1.8,0.6c0.4,0,0.8-0.1,1.2-0.2
		C142.8,37.1,143.2,36.9,143.5,36.8z"/>
</g>
</svg>
