<?xml version="1.0" encoding="UTF-8" standalone="no"?>
<svg width="32px" height="32px" viewBox="0 0 32 32" version="1.1" xmlns="http://www.w3.org/2000/svg" xmlns:xlink="http://www.w3.org/1999/xlink" xmlns:sketch="http://www.bohemiancoding.com/sketch/ns">
    <!-- Generator: Sketch 3.3.3 (12072) - http://www.bohemiancoding.com/sketch -->
    <title>alien</title>
    <desc>Created with Sketch.</desc>
    <defs></defs>
    <g id="Page-1" stroke="none" stroke-width="1" fill="none" fill-rule="evenodd" sketch:type="MSPage">
        <circle cx="16" cy="16" r="15.5" fill="#FFFFFF"/>
        <path d="M16,32 C24.836556,32 32,24.836556 32,16 C32,7.163444 24.836556,0 16,0 C7.163444,0 0,7.163444 0,16 C0,24.836556 7.163444,32 16,32 Z M16,28.0400009 C22.627417,28.0400009 28,22.6584634 28,16.0200005 C28,9.38153751 22.627417,4 16,4 C9.372583,4 4,9.38153751 4,16.0200005 C4,22.6584634 9.372583,28.0400009 16,28.0400009 Z M26,17.5 C26,19.4329966 23.9852814,21 21.5,21 C19.0147186,21 17,19.4329966 17,17.5 C17,15.5670034 19.0147186,14 21.5,14 L25.0001925,14 C25.5562834,14 26,14.4519098 26,15.0093689 L26,17.5 Z M6,17.5 C6,19.4329966 8.01471863,21 10.5,21 C12.9852814,21 15,19.4329966 15,17.5 C15,15.5670034 12.9852814,14 10.5,14 L6.99980749,14 C6.44371665,14 6,14.4519098 6,15.0093689 L6,17.5 Z M12,25 C12.8628677,23.7940143 14.3323206,23 16,23 C17.6676794,23 19.1371323,23.7940143 20,25 L12,25 L12,25 Z" id="alien" fill="#000000" sketch:type="MSShapeGroup"></path>
    </g>
</svg>
