<?xml version="1.0" encoding="UTF-8" standalone="no"?>
<svg width="32px" height="32px" viewBox="0 0 32 32" version="1.1" xmlns="http://www.w3.org/2000/svg" xmlns:xlink="http://www.w3.org/1999/xlink" xmlns:sketch="http://www.bohemiancoding.com/sketch/ns">
    <!-- Generator: Sketch 3.3.3 (12072) - http://www.bohemiancoding.com/sketch -->
    <title>audrey</title>
    <desc>Created with Sketch.</desc>
    <defs></defs>
    <g id="Page-1" stroke="none" stroke-width="1" fill="none" fill-rule="evenodd" sketch:type="MSPage">
        <circle cx="16" cy="16" r="14" fill="#FFFFFF"/>
        <path d="M17.0455714,18 C17.3575048,19.6961471 19.2329823,21 21.5,21 C23.9852814,21 26,19.4329966 26,17.5 L26,15.0093689 C26,14.4519098 25.5562834,14 25.0001925,14 L21.5,14 C19.7048883,14 18.1552754,14.8175263 17.4330486,16 L14.5669514,16 C13.8447246,14.8175263 12.2951117,14 10.5,14 L6.99980749,14 C6.44371665,14 6,14.4519098 6,15.0093689 L6,17.5 C6,19.4329966 8.01471863,21 10.5,21 C12.7670177,21 14.6424952,19.6961471 14.9544286,18 L17.0455714,18 L17.0455714,18 Z M16,32 C24.836556,32 32,24.836556 32,16 C32,7.163444 24.836556,0 16,0 C7.163444,0 0,7.163444 0,16 C0,24.836556 7.163444,32 16,32 Z M27.0679263,11.3550226 C27.6682475,12.7837408 28,14.3531279 28,16 C28,22.627417 22.627417,28 16,28 C9.372583,28 4,22.627417 4,16 C4,14.8739451 4.15510067,13.7841159 4.44510414,12.7507102 C7.29838696,12.1600543 9.78097252,10.5563268 11.5,8.33238856 C13.6946392,11.1716346 17.1338008,13 21,13 C23.2138198,13 25.2876221,12.400514 27.0679263,11.3550226 Z M18,24 C18,24.5522847 17.1045695,25 16,25 C14.8954305,25 14,24.5522847 14,24 L18,24 Z M19.9499909,24 C19.7183558,23.4294399 18.709479,23 17.5,23 C16.937197,23 16.4178303,23.0929862 16,23.2499085 L16,23.2499085 C15.5821697,23.0929862 15.062803,23 14.5,23 C13.290521,23 12.2816442,23.4294399 12.0500091,24 L19.9499909,24 Z M16,6 C16.5522847,6 17,5.55228475 17,5 C17,4.44771525 16.5522847,4 16,4 C15.4477153,4 15,4.44771525 15,5 C15,5.55228475 15.4477153,6 16,6 Z M20,7 C20.5522847,7 21,6.55228475 21,6 C21,5.44771525 20.5522847,5 20,5 C19.4477153,5 19,5.44771525 19,6 C19,6.55228475 19.4477153,7 20,7 Z M12,7 C12.5522847,7 13,6.55228475 13,6 C13,5.44771525 12.5522847,5 12,5 C11.4477153,5 11,5.44771525 11,6 C11,6.55228475 11.4477153,7 12,7 Z" id="audrey" fill="#000000" sketch:type="MSShapeGroup"></path>
    </g>
</svg>
