<?xml version="1.0" encoding="UTF-8" standalone="no"?>
<svg width="32px" height="32px" viewBox="0 0 32 32" version="1.1" xmlns="http://www.w3.org/2000/svg" xmlns:xlink="http://www.w3.org/1999/xlink" xmlns:sketch="http://www.bohemiancoding.com/sketch/ns">
    <!-- Generator: Sketch 3.3.3 (12072) - http://www.bohemiancoding.com/sketch -->
    <title>batman</title>
    <desc>Created with Sketch.</desc>
    <defs></defs>
    <g id="Page-1" stroke="none" stroke-width="1" fill="none" fill-rule="evenodd" sketch:type="MSPage">
        <circle cx="16" cy="16" r="15.99" fill="#FFFFFF"/>
        <path d="M27.8027232,5.19727683 C24.8775077,2.00302288 20.6726694,0 16,0 C11.3273306,0 7.12249228,2.00302288 4.19727683,5.19727683 L4.19727683,5.19727683 L7.51803924,8.51803924 C9.68934924,6.34431439 12.6879802,5 16,5 C19.3120198,5 22.3106508,6.34431439 24.4819608,8.51803924 L27.8027232,5.19727683 Z M28,5.41670242 C30.4894536,8.23723523 32,11.9422141 32,16 C32,24.836556 24.836556,32 16,32 C7.163444,32 0,24.836556 0,16 C0,11.9422141 1.51054636,8.23723523 4,5.41670242 L4,17 C4.00000697,17.0075622 4,17.0151261 4,17.0226916 C4,21.1777246 6.10379091,24.8404617 9.30237769,27 C10.1761158,24.1244426 12.8441781,22.0321464 16,22.0321464 C19.1558219,22.0321464 21.8238842,24.1244426 22.6976223,27 L22.6976223,27 C25.8962091,24.8404617 28,21.1777246 28,17.0226916 C28,17.0151261 27.999993,17.0075622 27.9999791,17 L28,5.41670242 Z M12.9499909,17 C12.9827849,17.161555 13,17.3287671 13,17.5 C13,18.8807119 11.8807119,20 10.5,20 C9.11928813,20 8,18.8807119 8,17.5 C8,17.3287671 8.01721513,17.161555 8.05000906,17 L12.9499909,17 L12.9499909,17 Z M23.9499909,17 C23.9827849,17.161555 24,17.3287671 24,17.5 C24,18.8807119 22.8807119,20 21.5,20 C20.1192881,20 19,18.8807119 19,17.5 C19,17.3287671 19.0172151,17.161555 19.0500091,17 L23.9499909,17 Z M13.990778,24 C13.4435864,24 13,24.4438648 13,25 C13,25.5522847 13.4509752,26 13.990778,26 L18.009222,26 C18.5564136,26 19,25.5561352 19,25 C19,24.4477153 18.5490248,24 18.009222,24 L13.990778,24 Z" id="batman" fill="#000000" sketch:type="MSShapeGroup"></path>
    </g>
</svg>
