<?xml version="1.0" encoding="UTF-8" standalone="no"?>
<svg width="32px" height="32px" viewBox="0 0 32 32" version="1.1" xmlns="http://www.w3.org/2000/svg" xmlns:xlink="http://www.w3.org/1999/xlink" xmlns:sketch="http://www.bohemiancoding.com/sketch/ns">
    <!-- Generator: Sketch 3.3.3 (12072) - http://www.bohemiancoding.com/sketch -->
    <title>birdo</title>
    <desc>Created with Sketch.</desc>
    <defs></defs>
    <g id="Page-1" stroke="none" stroke-width="1" fill="none" fill-rule="evenodd" sketch:type="MSPage">
        <circle cx="16" cy="16" r="15.5" fill="#FFFFFF"/>
        <path d="M16,32 C24.836556,32 32,24.836556 32,16 C32,7.163444 24.836556,0 16,0 C7.163444,0 0,7.163444 0,16 C0,24.836556 7.163444,32 16,32 Z M16,28 C22.627417,28 28,22.627417 28,16 C28,9.372583 22.627417,4 16,4 C9.372583,4 4,9.372583 4,16 C4,22.627417 9.372583,28 16,28 Z M10.5,19 C11.8807119,19 13,17.8807119 13,16.5 C13,15.1192881 11.8807119,14 10.5,14 C9.11928813,14 8,15.1192881 8,16.5 C8,17.8807119 9.11928813,19 10.5,19 Z M21.5,19 C22.8807119,19 24,17.8807119 24,16.5 C24,15.1192881 22.8807119,14 21.5,14 C20.1192881,14 19,15.1192881 19,16.5 C19,17.8807119 20.1192881,19 21.5,19 Z M18.8284271,24.8284271 C20.3905243,23.26633 20.3905243,20.73367 18.8284271,19.1715729 C17.26633,17.6094757 14.73367,17.6094757 13.1715729,19.1715729 C11.6094757,20.73367 11.6094757,23.26633 13.1715729,24.8284271 L16,27.6568542 L18.8284271,24.8284271 Z M13.75,20 C14.2992826,19.3866532 15.0970501,19 15.9848993,19 C16.8715912,19 17.6700084,19.3862506 18.2198394,20 L13.75,20 L13.75,20 Z" id="birdo" fill="#000000" sketch:type="MSShapeGroup"></path>
    </g>
</svg>
