<?xml version="1.0" encoding="UTF-8" standalone="no"?>
<svg width="32px" height="32px" viewBox="0 0 32 32" version="1.1" xmlns="http://www.w3.org/2000/svg" xmlns:xlink="http://www.w3.org/1999/xlink" xmlns:sketch="http://www.bohemiancoding.com/sketch/ns">
    <!-- Generator: Sketch 3.3.3 (12072) - http://www.bohemiancoding.com/sketch -->
    <title>bowie</title>
    <desc>Created with Sketch.</desc>
    <defs></defs>
    <g id="Page-1" stroke="none" stroke-width="1" fill="none" fill-rule="evenodd" sketch:type="MSPage">
        <circle cx="16" cy="16" r="15.99" fill="#FFFFFF"/>
        <path d="M19.7080648,4.58387044 C24.5206991,6.14596761 28,10.6666667 28,16 C28,22.627417 22.627417,28 16,28 C12.4327252,28 9.22900604,26.4434336 7.03099268,23.9724509 L16,16 L14,16 L19.7080648,4.58387044 L19.7080648,4.58387044 Z M6.99527892,8.06787895 C5.13100017,10.1826123 4,12.9592265 4,16 C4,19.0433394 5.13290977,21.8220736 7,23.9374732 L7,16 L5.03613281,16 L6.99527892,8.06787895 L6.99527892,8.06787895 Z M16,32 C24.836556,32 32,24.836556 32,16 C32,7.163444 24.836556,0 16,0 C7.163444,0 0,7.163444 0,16 C0,24.836556 7.163444,32 16,32 Z M23.9499909,16 C23.9827849,16.161555 24,16.3287671 24,16.5 C24,17.8807119 22.8807119,19 21.5,19 C20.1192881,19 19,17.8807119 19,16.5 C19,16.3287671 19.0172151,16.161555 19.0500091,16 L20.0853529,16 C20.0300771,16.1563895 20,16.3246823 20,16.5 C20,17.3284271 20.6715729,18 21.5,18 C22.3284271,18 23,17.3284271 23,16.5 C23,16.3246823 22.9699229,16.1563895 22.9146471,16 L23.9499909,16 Z M12.9499909,16 C12.9827849,16.161555 13,16.3287671 13,16.5 C13,17.8807119 11.8807119,19 10.5,19 C9.11928813,19 8,17.8807119 8,16.5 C8,16.3287671 8.01721513,16.161555 8.05000906,16 L9.08535285,16 C9.03007711,16.1563895 9,16.3246823 9,16.5 C9,17.3284271 9.67157288,18 10.5,18 C11.3284271,18 12,17.3284271 12,16.5 C12,16.3246823 11.9699229,16.1563895 11.9146471,16 L11.9146471,16 L12.9499909,16 Z M14.4904785,23 C14.2195947,23 14,23.2319336 14,23.5 C14,23.7761424 14.2150574,24 14.4904785,24 L17.5095215,24 C17.7804053,24 18,23.7680664 18,23.5 C18,23.2238576 17.7849426,23 17.5095215,23 L14.4904785,23 Z" id="bowie" fill="#000000" sketch:type="MSShapeGroup"></path>
    </g>
</svg>
