<?xml version="1.0" encoding="UTF-8" standalone="no"?>
<svg width="32px" height="32px" viewBox="0 0 32 32" version="1.1" xmlns="http://www.w3.org/2000/svg" xmlns:xlink="http://www.w3.org/1999/xlink" xmlns:sketch="http://www.bohemiancoding.com/sketch/ns">
    <!-- Generator: Sketch 3.3.3 (12072) - http://www.bohemiancoding.com/sketch -->
    <title>c3po</title>
    <desc>Created with Sketch.</desc>
    <defs></defs>
    <g id="Page-1" stroke="none" stroke-width="1" fill="none" fill-rule="evenodd" sketch:type="MSPage">
        <circle cx="16" cy="16" r="15.99" fill="#FFFFFF"/>
        <path d="M16,32 C24.836556,32 32,24.836556 32,16 C32,7.163444 24.836556,0 16,0 C7.163444,0 0,7.163444 0,16 C0,24.836556 7.163444,32 16,32 Z M12.0850527,24 L7.05557397,24 C9.25285618,26.4549974 12.4460007,28 16,28 C19.5539993,28 22.7471438,26.4549974 24.944426,24 L24.944426,24 L19.9151817,24 C19.7092584,24.5851089 19.151286,25 18.4952612,25 L13.5047388,25 C12.8453254,25 12.2903964,24.5825962 12.0850527,24 Z M12.0848183,23 L6.25209475,23 C4.83476181,21.0297629 4,18.612366 4,16 C4,9.372583 9.372583,4 16,4 C22.627417,4 28,9.372583 28,16 C28,18.612366 27.1652382,21.0297629 25.7479053,23 L25.7479053,23 L19.9149473,23 C19.7096036,22.4174038 19.1546746,22 18.4952612,22 L13.5047388,22 C12.848714,22 12.2907416,22.4148911 12.0848183,23 Z M11,20 C12.6568542,20 14,18.6568542 14,17 C14,15.3431458 12.6568542,14 11,14 C9.34314575,14 8,15.3431458 8,17 C8,18.6568542 9.34314575,20 11,20 Z M11,19 C12.1045695,19 13,18.1045695 13,17 C13,15.8954305 12.1045695,15 11,15 C9.8954305,15 9,15.8954305 9,17 C9,18.1045695 9.8954305,19 11,19 Z M21,20 C22.6568542,20 24,18.6568542 24,17 C24,15.3431458 22.6568542,14 21,14 C19.3431458,14 18,15.3431458 18,17 C18,18.6568542 19.3431458,20 21,20 Z M21,19 C22.1045695,19 23,18.1045695 23,17 C23,15.8954305 22.1045695,15 21,15 C19.8954305,15 19,15.8954305 19,17 C19,18.1045695 19.8954305,19 21,19 Z" id="c3po" fill="#000000" sketch:type="MSShapeGroup"></path>
    </g>
</svg>
