<?xml version="1.0" encoding="UTF-8" standalone="no"?>
<svg width="32px" height="32px" viewBox="0 0 32 32" version="1.1" xmlns="http://www.w3.org/2000/svg" xmlns:xlink="http://www.w3.org/1999/xlink" xmlns:sketch="http://www.bohemiancoding.com/sketch/ns">
    <!-- Generator: Sketch 3.3.3 (12072) - http://www.bohemiancoding.com/sketch -->
    <title>cat</title>
    <desc>Created with Sketch.</desc>
    <defs></defs>
    <g id="Page-1" stroke="none" stroke-width="1" fill="none" fill-rule="evenodd" sketch:type="MSPage">
        <circle cx="16" cy="16" r="14" fill="#FFFFFF"/>
        <path d="M7.05557397,24 C9.25285618,26.4549974 12.4460007,28 16,28 C19.5539993,28 22.7471438,26.4549974 24.944426,24 L21.5034227,24 C21.2329025,24 21,23.7761424 21,23.5 C21,23.2319336 21.22539,23 21.5034227,23 L25.7479053,23 L25.7479053,23 C25.9793795,22.6782273 26.1953151,22.3445278 26.3946137,22 L26.3946137,22 L21.5034227,22 C21.2329025,22 21,21.7761424 21,21.5 C21,21.2319336 21.22539,21 21.5034227,21 L26.9119156,21 C27.6105133,19.4778865 28,17.784428 28,16 L28,5.41670242 L28,5.41670242 C30.4894536,8.23723523 32,11.9422141 32,16 C32,24.836556 24.836556,32 16,32 C7.163444,32 0,24.836556 0,16 C0,11.9422141 1.51054636,8.23723523 4,5.41670242 L4,16 C4,17.784428 4.38948667,19.4778865 5.08808445,21 L5.08808445,21 L10.4965773,21 C10.7670975,21 11,21.2238576 11,21.5 C11,21.7680664 10.77461,22 10.4965773,22 L5.60538634,22 C5.8046849,22.3445278 6.02062055,22.6782273 6.25209475,23 L10.4965773,23 C10.7670975,23 11,23.2238576 11,23.5 C11,23.7680664 10.77461,24 10.4965773,24 L7.05557397,24 Z M15,23.8292943 L15,26.0001925 C15,26.5523709 15.4438648,27 16,27 C16.5522847,27 17,26.5562834 17,26.0001925 L17,23.8292943 C18.1651924,23.4174579 19,22.3062188 19,21 L13,21 C13,22.3062188 13.8348076,23.4174579 15,23.8292943 L15,23.8292943 Z M27.3137085,4.6862915 C24.418278,1.790861 20.418278,0 16,0 C11.581722,0 7.581722,1.790861 4.6862915,4.6862915 L4.6862915,4.6862915 L7.51471863,7.51471863 C9.6862915,5.34314575 12.6862915,4 16,4 C19.3137085,4 22.3137085,5.34314575 24.4852814,7.51471863 L27.3137085,4.6862915 L27.3137085,4.6862915 Z M21.5,19 C22.8807119,19 24,17.8807119 24,16.5 C24,15.1192881 22.8807119,14 21.5,14 C20.1192881,14 19,15.1192881 19,16.5 C19,17.8807119 20.1192881,19 21.5,19 Z M10.5,19 C11.8807119,19 13,17.8807119 13,16.5 C13,15.1192881 11.8807119,14 10.5,14 C9.11928813,14 8,15.1192881 8,16.5 C8,17.8807119 9.11928813,19 10.5,19 Z" id="cat" fill="#000000" sketch:type="MSShapeGroup"></path>
    </g>
</svg>
