<?xml version="1.0" encoding="UTF-8" standalone="no"?>
<svg width="32px" height="32px" viewBox="0 0 32 32" version="1.1" xmlns="http://www.w3.org/2000/svg" xmlns:xlink="http://www.w3.org/1999/xlink" xmlns:sketch="http://www.bohemiancoding.com/sketch/ns">
    <!-- Generator: Sketch 3.3.3 (12072) - http://www.bohemiancoding.com/sketch -->
    <title>clown</title>
    <desc>Created with Sketch.</desc>
    <defs></defs>
    <g id="Page-1" stroke="none" stroke-width="1" fill="none" fill-rule="evenodd" sketch:type="MSPage">
        <circle cx="16" cy="16" r="15.5" fill="#FFFFFF"/>
        <path d="M16,32 C24.836556,32 32,24.836556 32,16 C32,7.163444 24.836556,0 16,0 C7.163444,0 0,7.163444 0,16 C0,24.836556 7.163444,32 16,32 Z M16,28 C22.627417,28 28,22.627417 28,16 C28,9.372583 22.627417,4 16,4 C9.372583,4 4,9.372583 4,16 C4,22.627417 9.372583,28 16,28 Z M13.5047388,23 C12.6736945,23 12,23.6657972 12,24.5 C12,25.3284271 12.6683155,26 13.5047388,26 L18.4952612,26 C19.3263055,26 20,25.3342028 20,24.5 C20,23.6715729 19.3316845,23 18.4952612,23 L13.5047388,23 Z M22,19 C23.1045695,19 24,18.1045695 24,17 C24,15.8954305 23.1045695,15 22,15 C20.8954305,15 20,15.8954305 20,17 C20,18.1045695 20.8954305,19 22,19 Z M10,19 C8.8954305,19 8,18.1045695 8,17 C8,15.8954305 8.8954305,15 10,15 C11.1045695,15 12,15.8954305 12,17 C12,18.1045695 11.1045695,19 10,19 Z M8,20 L10,23 L12,20 L8,20 Z M20,20 L22,23 L24,20 L20,20 Z M12,14 L10,11 L8,14 L12,14 Z M24,14 L22,11 L20,14 L24,14 Z M16,22 C17.6568542,22 19,20.6568542 19,19 C19,17.3431458 17.6568542,16 16,16 C14.3431458,16 13,17.3431458 13,19 C13,20.6568542 14.3431458,22 16,22 Z" id="clown" fill="#000000" sketch:type="MSShapeGroup"></path>
    </g>
</svg>
