<?xml version="1.0" encoding="UTF-8" standalone="no"?>
<svg width="32px" height="32px" viewBox="0 0 32 32" version="1.1" xmlns="http://www.w3.org/2000/svg" xmlns:xlink="http://www.w3.org/1999/xlink" xmlns:sketch="http://www.bohemiancoding.com/sketch/ns">
    <!-- Generator: Sketch 3.3.3 (12072) - http://www.bohemiancoding.com/sketch -->
    <title>doggu</title>
    <desc>Created with Sketch.</desc>
    <defs></defs>
    <g id="Page-1" stroke="none" stroke-width="1" fill="none" fill-rule="evenodd" sketch:type="MSPage">
        <circle cx="16" cy="16" r="14" fill="#FFFFFF"/>
        <path d="M16,32 C24.836556,32 32,24.836556 32,16 C32,7.163444 24.836556,0 16,0 C7.163444,0 0,7.163444 0,16 C0,24.836556 7.163444,32 16,32 Z M18,4.16591688 C17.3495831,4.05679759 16.6814244,4 16,4 C15.3185756,4 14.6504169,4.05679759 14,4.16591688 L14,4.16591688 L14,8.00417376 C14,10.2034788 12.209139,12 10,12 C8.18536995,12 6.64802593,10.7879855 6.16088638,9.12855646 C4.79901793,11.0749721 4,13.4441757 4,16 C4,22.627417 9.372583,28 16,28 C22.627417,28 28,22.627417 28,16 C28,13.4439784 27.2008587,11.0746063 25.8387983,9.12810576 C25.3518895,10.7839896 23.8175046,12 22,12 C19.7953562,12 18,10.2110077 18,8.00417376 L18,4.16591688 L18,4.16591688 Z M17,23.8292943 C18.1651924,23.4174579 19,22.3062188 19,21 L13,21 C13,22.3062188 13.8348076,23.4174579 15,23.8292943 L15,26.0001925 C15,26.5523709 15.4438648,27 16,27 C16.5522847,27 17,26.5562834 17,26.0001925 L17,23.8292943 L17,23.8292943 Z M22,21 C24.209139,21 26,19.209139 26,17 C26,14.790861 24.209139,13 22,13 C19.790861,13 18,14.790861 18,17 C18,19.209139 19.790861,21 22,21 Z M10.5,19 C11.8807119,19 13,17.8807119 13,16.5 C13,15.1192881 11.8807119,14 10.5,14 C9.11928813,14 8,15.1192881 8,16.5 C8,17.8807119 9.11928813,19 10.5,19 Z M21.5,18 C22.3284271,18 23,17.3284271 23,16.5 C23,15.6715729 22.3284271,15 21.5,15 C20.6715729,15 20,15.6715729 20,16.5 C20,17.3284271 20.6715729,18 21.5,18 Z" id="doggu" fill="#000000" sketch:type="MSShapeGroup"></path>
    </g>
</svg>
