<?xml version="1.0" encoding="UTF-8" standalone="no"?>
<svg width="32px" height="32px" viewBox="0 0 32 32" version="1.1" xmlns="http://www.w3.org/2000/svg" xmlns:xlink="http://www.w3.org/1999/xlink" xmlns:sketch="http://www.bohemiancoding.com/sketch/ns">
    <!-- Generator: Sketch 3.3.3 (12072) - http://www.bohemiancoding.com/sketch -->
    <title>dude</title>
    <desc>Created with Sketch.</desc>
    <defs></defs>
    <g id="Page-1" stroke="none" stroke-width="1" fill="none" fill-rule="evenodd" sketch:type="MSPage">
        <circle cx="16" cy="16" r="14" fill="#FFFFFF"/>
        <path d="M16,32 C24.836556,32 32,24.836556 32,16 C32,7.163444 24.836556,0 16,0 C7.163444,0 0,7.163444 0,16 C0,24.836556 7.163444,32 16,32 Z M14.6862403,18 L17.3137597,18 L17.3137597,18 C18.0630473,19.7477886 20.0406718,21 22,21 C23.9593282,21 25.315421,19.7477886 25.8016426,18 L27.8340831,18 L27.8340831,18 C26.8819269,23.6754267 21.9459926,28 16,28 C10.0540074,28 5.11807306,23.6754267 4.16591688,18 L6.19835741,18 C6.68457901,19.7477886 8.04067176,21 10,21 C11.9593282,21 13.9369527,19.7477886 14.6862403,18 Z M14.9617291,16 L17.0382709,16 L17.0382709,16 C17.3625024,14.0126725 19.6939237,14 22,14 C24.3060763,14 25.7765114,14.0126725 25.9765773,16 L28,16 C28,9.372583 22.627417,4 16,4 C9.372583,4 4,9.372583 4,16 L6.02342268,16 C6.22348861,14.0126725 7.69392372,14 10,14 C12.3060763,14 14.6374976,14.0126725 14.9617291,16 Z M20,23 C19.1371323,24.2059857 17.6676794,25 16,25 C14.3323206,25 12.8628677,24.2059857 12,23 L20,23 L20,23 Z" id="dude" fill="#000000" sketch:type="MSShapeGroup"></path>
    </g>
</svg>
