<?xml version="1.0" encoding="UTF-8" standalone="no"?>
<svg width="32px" height="32px" viewBox="0 0 32 32" version="1.1" xmlns="http://www.w3.org/2000/svg" xmlns:xlink="http://www.w3.org/1999/xlink" xmlns:sketch="http://www.bohemiancoding.com/sketch/ns">
    <!-- Generator: Sketch 3.3.3 (12072) - http://www.bohemiancoding.com/sketch -->
    <title>emo</title>
    <desc>Created with Sketch.</desc>
    <defs></defs>
    <g id="Page-1" stroke="none" stroke-width="1" fill="none" fill-rule="evenodd" sketch:type="MSPage">
        <circle cx="16" cy="16" r="14" fill="#FFFFFF"/>
        <path d="M16,32 C24.836556,32 32,24.836556 32,16 C32,7.163444 24.836556,0 16,0 C7.163444,0 0,7.163444 0,16 C0,24.836556 7.163444,32 16,32 Z M16,28 C22.627417,28 28,22.627417 28,16 C28,9.372583 22.627417,4 16,4 C9.372583,4 4,9.372583 4,16 C4,22.627417 9.372583,28 16,28 Z M21.5,19 C22.8807119,19 24,17.8807119 24,16.5 C24,15.1192881 22.8807119,14 21.5,14 C20.1192881,14 19,15.1192881 19,16.5 C19,17.8807119 20.1192881,19 21.5,19 Z M22.7097037,6.04967477 C21.2858704,13.4276085 14.7936861,19 7,19 L7,16.9677727 C5.98144803,16.9674685 4.98514187,16.8719897 4.01949141,16.689746 C4.00655564,16.4614788 4,16.231505 4,16 C4,9.372583 9.372583,4 16,4 C18.4854499,4 20.7944149,4.75562196 22.7097037,6.04967477 Z M12.9970301,23 C12.4463856,23 12,23.4438648 12,24 C12,24.5522847 12.4530363,25 12.9970301,25 L19.0029699,25 C19.5536144,25 20,24.5561352 20,24 C20,23.4477153 19.5469637,23 19.0029699,23 L12.9970301,23 Z" id="emo" fill="#000000" sketch:type="MSShapeGroup"></path>
    </g>
</svg>
