<?xml version="1.0" encoding="UTF-8" standalone="no"?>
<svg width="32px" height="32px" viewBox="0 0 32 32" version="1.1" xmlns="http://www.w3.org/2000/svg" xmlns:xlink="http://www.w3.org/1999/xlink" xmlns:sketch="http://www.bohemiancoding.com/sketch/ns">
    <!-- Generator: Sketch 3.3.3 (12072) - http://www.bohemiancoding.com/sketch -->
    <title>fancy</title>
    <desc>Created with Sketch.</desc>
    <defs></defs>
    <g id="Page-1" stroke="none" stroke-width="1" fill="none" fill-rule="evenodd" sketch:type="MSPage">
      <circle cx="16" cy="16" r="15.99" fill="#FFFFFF"/>
      <path d="M16,32 C24.836556,32 32,24.836556 32,16 C32,7.163444 24.836556,0 16,0 C7.163444,0 0,7.163444 0,16 C0,24.836556 7.163444,32 16,32 Z M22.6355902,26 C20.7349777,27.2636946 18.4534755,28 16,28 C13.5465245,28 11.2650223,27.2636946 9.36440975,26 L15.9880371,26 L22.6355902,26 L22.6355902,26 Z M24.7252614,24.2383585 C26.7553745,22.0890289 28,19.1898634 28,16 C28,9.372583 22.627417,4 16,4 C9.372583,4 4,9.372583 4,16 C4,19.1804117 5.23726072,22.0718457 7.25671342,24.2192332 C8.01530927,21.7750421 10.2943815,20 12.9880371,20 C14.0808985,20 15.105517,20.2921829 15.9880371,20.8026932 L15.9880371,20.8026932 C16.8705572,20.2921829 17.8951757,20 18.9880371,20 C21.6887135,20 23.9726425,21.7843071 24.7252614,24.2383585 L24.7252614,24.2383585 Z M10.5,19 C11.8807119,19 13,17.8807119 13,16.5 C13,15.1192881 11.8807119,14 10.5,14 C9.11928813,14 8,15.1192881 8,16.5 C8,17.8807119 9.11928813,19 10.5,19 Z M21.5,20 C23.4329966,20 25,18.4329966 25,16.5 C25,14.5670034 23.4329966,13 21.5,13 C19.5670034,13 18,14.5670034 18,16.5 C18,18.4329966 19.5670034,20 21.5,20 Z M21.5,19 C22.8807119,19 24,17.8807119 24,16.5 C24,15.1192881 22.8807119,14 21.5,14 C20.1192881,14 19,15.1192881 19,16.5 C19,17.8807119 20.1192881,19 21.5,19 Z" id="fancy" fill="#000000" sketch:type="MSShapeGroup"></path>
    </g>
</svg>
