<?xml version="1.0" encoding="UTF-8" standalone="no"?>
<svg width="32px" height="32px" viewBox="0 0 32 32" version="1.1" xmlns="http://www.w3.org/2000/svg" xmlns:xlink="http://www.w3.org/1999/xlink" xmlns:sketch="http://www.bohemiancoding.com/sketch/ns">
    <!-- Generator: Sketch 3.3.3 (12072) - http://www.bohemiancoding.com/sketch -->
    <title>hagrid</title>
    <desc>Created with Sketch.</desc>
    <defs></defs>
    <g id="Page-1" stroke="none" stroke-width="1" fill="none" fill-rule="evenodd" sketch:type="MSPage">
        <circle cx="16" cy="16" r="14" fill="#FFFFFF"/>
        <path d="M16,32 C24.836556,32 32,24.836556 32,16 C32,7.163444 24.836556,0 16,0 C7.163444,0 0,7.163444 0,16 C0,24.836556 7.163444,32 16,32 Z M7,19 C5.34314575,19 4,17.6568542 4,16 C4,9.372583 9.372583,4 16,4 C22.627417,4 28,9.372583 28,16 C28,17.6568542 26.6568542,19 25,19 C23.0344238,19 22.0505371,14.0205078 16,14.0205078 C9.94946289,14.0205078 9.04125977,19 7,19 Z M20,17 C19.1371323,18.2059857 17.6676794,19 16,19 C14.3323206,19 12.8628677,18.2059857 12,17 L20,17 L20,17 Z M19.0500091,13 C19.0172151,12.838445 19,12.6712329 19,12.5 C19,11.1192881 20.1192881,10 21.5,10 C22.8807119,10 24,11.1192881 24,12.5 C24,12.6712329 23.9827849,12.838445 23.9499909,13 L22.9146471,13 C22.9699229,12.8436105 23,12.6753177 23,12.5 C23,11.6715729 22.3284271,11 21.5,11 C20.6715729,11 20,11.6715729 20,12.5 C20,12.6753177 20.0300771,12.8436105 20.0853529,13 L19.0500091,13 Z M8.05000906,13 C8.01721513,12.838445 8,12.6712329 8,12.5 C8,11.1192881 9.11928813,10 10.5,10 C11.8807119,10 13,11.1192881 13,12.5 C13,12.6712329 12.9827849,12.838445 12.9499909,13 L11.9146471,13 C11.9699229,12.8436105 12,12.6753177 12,12.5 C12,11.6715729 11.3284271,11 10.5,11 C9.67157288,11 9,11.6715729 9,12.5 C9,12.6753177 9.03007711,12.8436105 9.08535285,13 L9.08535285,13 L8.05000906,13 Z" id="hagrid" fill="#000000" sketch:type="MSShapeGroup"></path>
    </g>
</svg>
