<?xml version="1.0" encoding="UTF-8" standalone="no"?>
<svg width="32px" height="32px" viewBox="0 0 32 32" version="1.1" xmlns="http://www.w3.org/2000/svg" xmlns:xlink="http://www.w3.org/1999/xlink" xmlns:sketch="http://www.bohemiancoding.com/sketch/ns">
    <!-- Generator: Sketch 3.3.3 (12072) - http://www.bohemiancoding.com/sketch -->
    <title>lady</title>
    <desc>Created with Sketch.</desc>
    <defs></defs>
    <g id="Page-1" stroke="none" stroke-width="1" fill="none" fill-rule="evenodd" sketch:type="MSPage">
        <circle cx="16" cy="16" r="15.5" fill="#FFFFFF"/>
        <path d="M27,4.38099862 C30.079232,7.29717706 32,11.4242788 32,16 C32,24.836556 24.836556,32 16,32 C7.163444,32 0,24.836556 0,16 C0,7.163444 7.163444,0 16,0 C20.1298766,0 23.8942989,1.56469592 26.732786,4.13360698 L23,6 L27,8 L27,4.38099862 L27,4.38099862 Z M27.6850162,13.2568131 C27.4893048,12.4198982 27.2060023,11.6166797 26.8453031,10.857352 L26.8453031,10.857352 C24.9038324,12.2081131 22.5443938,13 20,13 C16.3944423,13 13.1602852,11.4098451 10.9605757,8.89258227 L10.9605757,8.89258227 C9.83872983,11.401975 7.88041794,13.4555852 5.44017778,14.6988752 L5.44017778,14.6988752 C5.797876,15.387675 6,16.1702332 6,17 C6,18.2505031 5.54093382,19.3937855 4.78213372,20.270515 C6.50341988,24.7894372 10.8767764,28 16,28 C21.1232236,28 25.4965801,24.7894372 27.2178663,20.270515 C26.4590662,19.3937855 26,18.2505031 26,17 C26,15.5103319 26.6514556,14.1728193 27.6850162,13.2568131 L27.6850162,13.2568131 Z M21.5,19 C22.8807119,19 24,17.8807119 24,16.5 C24,15.1192881 22.8807119,14 21.5,14 C20.1192881,14 19,15.1192881 19,16.5 C19,17.8807119 20.1192881,19 21.5,19 Z M10.5,19 C11.8807119,19 13,17.8807119 13,16.5 C13,15.1192881 11.8807119,14 10.5,14 C9.11928813,14 8,15.1192881 8,16.5 C8,17.8807119 9.11928813,19 10.5,19 Z M21,8 C22.1045695,8 23,7.1045695 23,6 C23,4.8954305 22.1045695,4 21,4 C19.8954305,4 19,4.8954305 19,6 C19,7.1045695 19.8954305,8 21,8 Z M19,6 L15,8 L15,4 L19,6 Z M20,23 C19.1371323,24.2059857 17.6676794,25 16,25 C14.3323206,25 12.8628677,24.2059857 12,23 L20,23 L20,23 Z" id="lady" fill="#000000" sketch:type="MSShapeGroup"></path>
    </g>
</svg>
