<?xml version="1.0" encoding="UTF-8" standalone="no"?>
<svg width="32px" height="32px" viewBox="0 0 32 32" version="1.1" xmlns="http://www.w3.org/2000/svg" xmlns:xlink="http://www.w3.org/1999/xlink" xmlns:sketch="http://www.bohemiancoding.com/sketch/ns">
    <!-- Generator: Sketch 3.3.3 (12072) - http://www.bohemiancoding.com/sketch -->
    <title>luchador</title>
    <desc>Created with Sketch.</desc>
    <defs></defs>
    <g id="Page-1" stroke="none" stroke-width="1" fill="none" fill-rule="evenodd" sketch:type="MSPage">
        <circle cx="16" cy="16" r="14" fill="#FFFFFF"/>
        <path d="M16,32 C24.836556,32 32,24.836556 32,16 C32,7.163444 24.836556,0 16,0 C7.163444,0 0,7.163444 0,16 C0,24.836556 7.163444,32 16,32 Z M16,28 C22.627417,28 28,22.627417 28,16 C28,9.372583 22.627417,4 16,4 C9.372583,4 4,9.372583 4,16 C4,22.627417 9.372583,28 16,28 Z M13.5047388,23 C12.6736945,23 12,23.6657972 12,24.5 C12,25.3284271 12.6683155,26 13.5047388,26 L18.4952612,26 C19.3263055,26 20,25.3342028 20,24.5 C20,23.6715729 19.3316845,23 18.4952612,23 L13.5047388,23 Z M14,21.0415039 L18,21.0415039 L16,16.0415039 L14,21.0415039 Z M26,17.0003371 C25.9998178,19.2093212 24.2090266,21 22,21 C19.790861,21 18,19.209139 18,17 C18,14.7909731 19.7906793,13.0001817 21.9996638,13 L25.0001925,13 C25.5562834,13 26,13.4476291 26,13.9998075 L26,17.0001925 L26,17.0003371 Z M22,19 C23.1045695,19 24,18.1045695 24,17 C24,15.8954305 23.1045695,15 22,15 C20.8954305,15 20,15.8954305 20,17 C20,18.1045695 20.8954305,19 22,19 Z M6.00000001,17.0003371 C6.00018219,19.2093212 7.79097337,21 10,21 C12.209139,21 14,19.209139 14,17 C14,14.7909731 12.2093207,13.0001817 10.0003362,13 L6.99980749,13 C6.44371665,13 6,13.4476291 6,13.9998075 L6,17.0001925 L6.00000001,17.0003371 Z M10,19 C8.8954305,19 8,18.1045695 8,17 C8,15.8954305 8.8954305,15 10,15 C11.1045695,15 12,15.8954305 12,17 C12,18.1045695 11.1045695,19 10,19 Z" id="luchador" fill="#000000" sketch:type="MSShapeGroup"></path>
    </g>
</svg>
