<?xml version="1.0" encoding="UTF-8" standalone="no"?>
<svg width="32px" height="32px" viewBox="0 0 32 32" version="1.1" xmlns="http://www.w3.org/2000/svg" xmlns:xlink="http://www.w3.org/1999/xlink" xmlns:sketch="http://www.bohemiancoding.com/sketch/ns">
    <!-- Generator: Sketch 3.3.3 (12072) - http://www.bohemiancoding.com/sketch -->
    <title>makeup</title>
    <desc>Created with Sketch.</desc>
    <defs></defs>
    <g id="Page-1" stroke="none" stroke-width="1" fill="none" fill-rule="evenodd" sketch:type="MSPage">
        <circle cx="16" cy="16" r="14" fill="#FFFFFF"/>
        <path d="M8.05000906,17 C8.28164422,18.1411202 9.29052104,19 10.5,19 C11.8807119,19 13,17.8807119 13,16.5 C13,15.1207036 11.8830057,14.0022953 10.5042457,14.0000035 L10.5042457,14.0000035 C10.5035979,14.0000012 10.5029498,14 10.5023012,14 L6.49769878,14 C6.22282734,14 6,14.2319336 6,14.5 C6,14.7761424 6.21484375,15 6.49769878,15 L8.49981691,15 C8.28145967,15.2907053 8.12500118,15.6305612 8.05000906,16 L6.49769878,16 C6.22282734,16 6,16.2319336 6,16.5 C6,16.7761424 6.21484375,17 6.49769878,17 L8.05000906,17 L8.05000906,17 Z M23.9499909,16 C23.8749988,15.6305612 23.7185403,15.2907053 23.5001831,15 L23.5001831,15 L25.5023012,15 C25.7771727,15 26,14.7680664 26,14.5 C26,14.2238576 25.7851562,14 25.5023012,14 L21.4976988,14 C21.4971024,14 21.4965062,14.0000011 21.4959103,14.0000033 C20.1170786,14.0022109 19,15.1206516 19,16.5 C19,17.8807119 20.1192881,19 21.5,19 C22.709479,19 23.7183558,18.1411202 23.9499909,17 L25.5023012,17 C25.7771727,17 26,16.7680664 26,16.5 C26,16.2238576 25.7851562,16 25.5023012,16 L23.9499909,16 L23.9499909,16 Z M16,32 C24.836556,32 32,24.836556 32,16 C32,7.163444 24.836556,0 16,0 C7.163444,0 0,7.163444 0,16 C0,24.836556 7.163444,32 16,32 Z M16,28 C22.627417,28 28,22.627417 28,16 C28,9.372583 22.627417,4 16,4 C9.372583,4 4,9.372583 4,16 C4,22.627417 9.372583,28 16,28 Z M20,23 C19.1371323,24.2059857 17.6676794,25 16,25 C14.3323206,25 12.8628677,24.2059857 12,23 L20,23 L20,23 Z M20.0500091,23 C19.8154413,22.4294399 18.7937915,22 17.5689999,22 C16.9990715,22 16.4731293,22.0929862 16.0500091,22.2499085 L16.0500091,22.2499085 C15.6268888,22.0929862 15.1009466,22 14.5310182,22 C13.3062266,22 12.2845769,22.4294399 12.0500091,23 L20.0500091,23 Z" id="makeup" fill="#000000" sketch:type="MSShapeGroup"></path>
    </g>
</svg>
