<?xml version="1.0" encoding="UTF-8" standalone="no"?>
<svg width="32px" height="32px" viewBox="0 0 32 32" version="1.1" xmlns="http://www.w3.org/2000/svg" xmlns:xlink="http://www.w3.org/1999/xlink" xmlns:sketch="http://www.bohemiancoding.com/sketch/ns">
    <!-- Generator: Sketch 3.3.3 (12072) - http://www.bohemiancoding.com/sketch -->
    <title>monkey</title>
    <desc>Created with Sketch.</desc>
    <defs></defs>
    <g id="Page-1" stroke="none" stroke-width="1" fill="none" fill-rule="evenodd" sketch:type="MSPage">
        <circle cx="16" cy="16" r="15.99" fill="#FFFFFF"/>
        <path d="M16,32 C24.836556,32 32,24.836556 32,16 C32,7.163444 24.836556,0 16,0 C7.163444,0 0,7.163444 0,16 C0,24.836556 7.163444,32 16,32 Z M20.8999819,24 C20.9655697,23.6768901 21,23.3424658 21,23 C21,22.2820344 20.8486742,21.5994129 20.5761776,20.9822905 C20.7158965,20.9940178 20.8572497,21 21,21 C23.7614237,21 26,18.7614237 26,16 C26,13.2385763 23.7614237,11 21,11 C18.2385763,11 16,13.2385763 16,16 C16,13.2385763 13.7614237,11 11,11 C8.23857625,11 6,13.2385763 6,16 C6,18.7614237 8.23857625,21 11,21 C11.1427503,21 11.2841035,20.9940178 11.4238224,20.9822905 L11.4238224,20.9822905 C11.1513258,21.5994129 11,22.2820344 11,23 C11,23.3424658 11.0344303,23.6768901 11.1000181,24 L20.8999819,24 L20.8999819,24 Z M20.5839563,25 C19.8123997,26.7659048 18.050319,28 16,28 C13.949681,28 12.1876003,26.7659048 11.4160437,25 L20.5839563,25 L20.5839563,25 Z M16,28 C22.627417,28 28,22.627417 28,16 C28,9.372583 22.627417,4 16,4 C9.372583,4 4,9.372583 4,16 C4,22.627417 9.372583,28 16,28 Z M11,18 C12.1045695,18 13,17.1045695 13,16 C13,14.8954305 12.1045695,14 11,14 C9.8954305,14 9,14.8954305 9,16 C9,17.1045695 9.8954305,18 11,18 Z M21,18 C22.1045695,18 23,17.1045695 23,16 C23,14.8954305 22.1045695,14 21,14 C19.8954305,14 19,14.8954305 19,16 C19,17.1045695 19.8954305,18 21,18 Z M18,20 C18,21.1045695 17.1045695,22 16,22 C14.8954305,22 14,21.1045695 14,20 L18,20 Z" id="monkey" fill="#000000" sketch:type="MSShapeGroup"></path>
    </g>
</svg>
