<?xml version="1.0" encoding="UTF-8" standalone="no"?>
<svg width="32px" height="32px" viewBox="0 0 32 32" version="1.1" xmlns="http://www.w3.org/2000/svg" xmlns:xlink="http://www.w3.org/1999/xlink" xmlns:sketch="http://www.bohemiancoding.com/sketch/ns">
    <!-- Generator: Sketch 3.3.3 (12072) - http://www.bohemiancoding.com/sketch -->
    <title>mummy</title>
    <desc>Created with Sketch.</desc>
    <defs></defs>
    <g id="Page-1" stroke="none" stroke-width="1" fill="none" fill-rule="evenodd" sketch:type="MSPage">
        <path d="M16,32 C24.836556,32 32,24.836556 32,16 C32,7.163444 24.836556,0 16,0 C7.163444,0 0,7.163444 0,16 C0,24.836556 7.163444,32 16,32 Z M24.3190711,7.3516826 C26.1330117,9.09698738 27.3991551,11.4075659 27.8340831,14 L27.8340831,14 L12.8038476,14 L24.3190711,7.3516826 Z M22.6470455,6.00762594 C20.744148,4.73926812 18.4584066,4 16,4 C13.5415934,4 11.255852,4.73926812 9.35295447,6.00762594 L16,9.84529946 L22.6470455,6.00762594 Z M7.6809289,7.3516826 C5.86698831,9.09698738 4.60084491,11.4075659 4.16591688,14 L8.80384758,14 L14,11 L7.6809289,7.3516826 Z M25.7479053,23 C23.5695489,26.0281373 20.015051,28 16,28 C11.984949,28 8.43045114,26.0281373 6.25209475,23 L25.7479053,23 L25.7479053,23 Z M10.5,21 C11.8807119,21 13,19.8807119 13,18.5 C13,17.1192881 11.8807119,16 10.5,16 C9.11928813,16 8,17.1192881 8,18.5 C8,19.8807119 9.11928813,21 10.5,21 Z M21.5,21 C22.8807119,21 24,19.8807119 24,18.5 C24,17.1192881 22.8807119,16 21.5,16 C20.1192881,16 19,17.1192881 19,18.5 C19,19.8807119 20.1192881,21 21.5,21 Z" id="mummy" fill="#000000" sketch:type="MSShapeGroup"></path>
    </g>
</svg>