<?xml version="1.0" encoding="UTF-8" standalone="no"?>
<svg width="32px" height="32px" viewBox="0 0 32 32" version="1.1" xmlns="http://www.w3.org/2000/svg" xmlns:xlink="http://www.w3.org/1999/xlink" xmlns:sketch="http://www.bohemiancoding.com/sketch/ns">
    <!-- Generator: Sketch 3.3.3 (12072) - http://www.bohemiancoding.com/sketch -->
    <title>nerdo</title>
    <desc>Created with Sketch.</desc>
    <defs></defs>
    <g id="Page-1" stroke="none" stroke-width="1" fill="none" fill-rule="evenodd" sketch:type="MSPage">
        <circle cx="16" cy="16" r="14" fill="#FFFFFF"/>
        <path d="M16,32 C24.836556,32 32,24.836556 32,16 C32,7.163444 24.836556,0 16,0 C7.163444,0 0,7.163444 0,16 C0,24.836556 7.163444,32 16,32 Z M4,16 C4,9.372583 9.372583,4 16,4 C22.627417,4 28,9.372583 28,16 L25.9999921,16 C25.9968073,14.8948834 25.1021797,14 24.0026083,14 L18.9973917,14 C17.8962078,14 17.0031543,14.8834311 17.0000083,16 L14.999992,16 C14.9968073,14.8948834 14.1021797,14 13.0026083,14 L7.9973917,14 C6.89620784,14 6.00315431,14.8834311 6.00000834,16 L4,16 Z M4.16591688,18 C5.11807306,23.6754267 10.0540074,28 16,28 C21.9459926,28 26.8819269,23.6754267 27.8340831,18 L26,18 L26,18.9940809 C26,20.1134452 25.1057373,21 24.0026083,21 L18.9973917,21 C17.8958578,21 17,20.1019194 17,18.9940809 L17,18 L15,18 L15,18.9940809 C15,20.1134452 14.1057373,21 13.0026083,21 L7.9973917,21 C6.89585781,21 6,20.1019194 6,18.9940809 L6,18 L4.16591688,18 L4.16591688,18 Z M20,23 C19.1371323,24.2059857 17.6676794,25 16,25 C14.3323206,25 12.8628677,24.2059857 12,23 L20,23 L20,23 Z M8.49769878,16 C8.22282734,16 8,16.2157526 8,16.495389 L8,18.504611 C8,18.7782068 8.21484375,19 8.49769878,19 L12.5023012,19 C12.7771727,19 13,18.7842474 13,18.504611 L13,16.495389 C13,16.2217932 12.7851562,16 12.5023012,16 L8.49769878,16 Z M19.4976988,16 C19.2228273,16 19,16.2157526 19,16.495389 L19,18.504611 C19,18.7782068 19.2148438,19 19.4976988,19 L23.5023012,19 C23.7771727,19 24,18.7842474 24,18.504611 L24,16.495389 C24,16.2217932 23.7851562,16 23.5023012,16 L19.4976988,16 Z" id="nerdo" fill="#000000" sketch:type="MSShapeGroup"></path>
    </g>
</svg>
