<?xml version="1.0" encoding="UTF-8" standalone="no"?>
<svg width="32px" height="32px" viewBox="0 0 32 32" version="1.1" xmlns="http://www.w3.org/2000/svg" xmlns:xlink="http://www.w3.org/1999/xlink" xmlns:sketch="http://www.bohemiancoding.com/sketch/ns">
    <!-- Generator: Sketch 3.3.3 (12072) - http://www.bohemiancoding.com/sketch -->
    <title>ogre</title>
    <desc>Created with Sketch.</desc>
    <defs></defs>
    <g id="Page-1" stroke="none" stroke-width="1" fill="none" fill-rule="evenodd" sketch:type="MSPage">
        <circle cx="16" cy="16" r="15.99" fill="#FFFFFF"/>
        <path d="M16,32 C24.836556,32 32,24.836556 32,16 C32,7.163444 24.836556,0 16,0 C7.163444,0 0,7.163444 0,16 C0,24.836556 7.163444,32 16,32 Z M14,25 L23.484451,25 C21.8699283,22.5880285 19.1204161,21 16,21 C12.8795839,21 10.1300717,22.5880285 8.51554904,25 L8.51554904,25 L12,25 L12,23.9989566 C12,23.4426603 12.4477153,23 13,23 C13.5561352,23 14,23.4472481 14,23.9989566 L14,25 L14,25 Z M16,28 C22.627417,28 28,22.627417 28,16 C28,9.372583 22.627417,4 16,4 C9.372583,4 4,9.372583 4,16 C4,22.627417 9.372583,28 16,28 Z M10.5,19 C11.8807119,19 13,17.8807119 13,16.5 C13,15.1192881 11.8807119,14 10.5,14 C9.11928813,14 8,15.1192881 8,16.5 C8,17.8807119 9.11928813,19 10.5,19 Z M19.9998075,16 C19.4476291,16 19,16.4438648 19,17 C19,17.5522847 19.4437166,18 19.9998075,18 L23.0001925,18 C23.5523709,18 24,17.5561352 24,17 C24,16.4477153 23.5562834,16 23.0001925,16 L19.9998075,16 Z" id="ogre" fill="#000000" sketch:type="MSShapeGroup"></path>
    </g>
</svg>
