<?xml version="1.0" encoding="UTF-8" standalone="no"?>
<svg width="32px" height="32px" viewBox="0 0 32 32" version="1.1" xmlns="http://www.w3.org/2000/svg" xmlns:xlink="http://www.w3.org/1999/xlink" xmlns:sketch="http://www.bohemiancoding.com/sketch/ns">
    <!-- Generator: Sketch 3.3.3 (12072) - http://www.bohemiancoding.com/sketch -->
    <title>orko</title>
    <desc>Created with Sketch.</desc>
    <defs></defs>
    <g id="Page-1" stroke="none" stroke-width="1" fill="none" fill-rule="evenodd" sketch:type="MSPage">
        <circle cx="16" cy="16" r="15.99" fill="#FFFFFF"/>
        <path d="M16,32 C24.836556,32 32,24.836556 32,16 C32,7.163444 24.836556,0 16,0 C7.163444,0 0,7.163444 0,16 C0,24.836556 7.163444,32 16,32 Z M26.3946137,22 C24.3197571,25.5868082 20.4416941,28 16,28 C11.5583059,28 7.68024287,25.5868082 5.60538634,22 L26.3946137,22 L26.3946137,22 Z M26.3946137,10 C24.3197571,6.41319178 20.4416941,4 16,4 C11.5583059,4 7.68024287,6.41319178 5.60538634,10 L26.3946137,10 L26.3946137,10 Z M22,19 C23.6568542,19 25,17.6568542 25,16 C25,14.3431458 23.6568542,13 22,13 C20.3431458,13 19,14.3431458 19,16 C19,17.6568542 20.3431458,19 22,19 Z M10,19 C11.6568542,19 13,17.6568542 13,16 C13,14.3431458 11.6568542,13 10,13 C8.34314575,13 7,14.3431458 7,16 C7,17.6568542 8.34314575,19 10,19 Z" id="orko" fill="#000000" sketch:type="MSShapeGroup"></path>
    </g>
</svg>
