<?xml version="1.0" encoding="UTF-8" standalone="no"?>
<svg width="32px" height="32px" viewBox="0 0 32 32" version="1.1" xmlns="http://www.w3.org/2000/svg" xmlns:xlink="http://www.w3.org/1999/xlink" xmlns:sketch="http://www.bohemiancoding.com/sketch/ns">
    <!-- Generator: Sketch 3.3.3 (12072) - http://www.bohemiancoding.com/sketch -->
    <title>owl</title>
    <desc>Created with Sketch.</desc>
    <defs></defs>
    <g id="Page-1" stroke="none" stroke-width="1" fill="none" fill-rule="evenodd" sketch:type="MSPage">
        <circle cx="16" cy="16" r="15.99" fill="#FFFFFF"/>
        <path d="M16,32 C24.836556,32 32,24.836556 32,16 C32,7.163444 24.836556,0 16,0 C7.163444,0 0,7.163444 0,16 C0,24.836556 7.163444,32 16,32 Z M16,28 C22.627417,28 28,22.627417 28,16 C28,9.372583 22.627417,4 16,4 C9.372583,4 4,9.372583 4,16 C4,22.627417 9.372583,28 16,28 Z M10,22 C13.3137085,22 16,19.3137085 16,16 C16,12.6862915 13.3137085,10 10,10 C6.6862915,10 4,12.6862915 4,16 C4,19.3137085 6.6862915,22 10,22 Z M22,22 C25.3137085,22 28,19.3137085 28,16 C28,12.6862915 25.3137085,10 22,10 C18.6862915,10 16,12.6862915 16,16 C16,19.3137085 18.6862915,22 22,22 Z M9.93896484,17.9394531 C11.0435343,17.9394531 11.9389648,17.0440226 11.9389648,15.9394531 C11.9389648,14.8348836 11.0435343,13.9394531 9.93896484,13.9394531 C8.83439534,13.9394531 7.93896484,14.8348836 7.93896484,15.9394531 C7.93896484,17.0440226 8.83439534,17.9394531 9.93896484,17.9394531 Z M22,18 C23.1045695,18 24,17.1045695 24,16 C24,14.8954305 23.1045695,14 22,14 C20.8954305,14 20,14.8954305 20,16 C20,17.1045695 20.8954305,18 22,18 Z M17.4142136,24.4142136 C18.1952621,23.633165 18.1952621,22.366835 17.4142136,21.5857864 C16.633165,20.8047379 15.366835,20.8047379 14.5857864,21.5857864 C13.8047379,22.366835 13.8047379,23.633165 14.5857864,24.4142136 L16,25.8284271 L17.4142136,24.4142136 Z" id="owl" fill="#000000" sketch:type="MSShapeGroup"></path>
    </g>
</svg>
