<?xml version="1.0" encoding="UTF-8" standalone="no"?>
<svg width="32px" height="32px" viewBox="0 0 32 32" version="1.1" xmlns="http://www.w3.org/2000/svg" xmlns:xlink="http://www.w3.org/1999/xlink" xmlns:sketch="http://www.bohemiancoding.com/sketch/ns">
    <!-- Generator: Sketch 3.3.3 (12072) - http://www.bohemiancoding.com/sketch -->
    <title>pirate</title>
    <desc>Created with Sketch.</desc>
    <defs></defs>
    <g id="Page-1" stroke="none" stroke-width="1" fill="none" fill-rule="evenodd" sketch:type="MSPage">
        <circle cx="16" cy="16" r="14" fill="#FFFFFF"/>
        <path d="M27.6219475,13 C27.868741,13.9588598 28,14.9641013 28,16 C28,20.1471908 25.8962091,23.8030149 22.6976223,25.9584773 L22.6976223,25.9584773 C21.8238842,23.0883473 19.1558219,21 16,21 C12.8441781,21 10.1761158,23.0883473 9.30237769,25.9584773 C6.6597805,24.177685 4.76445549,21.3727943 4.18539644,18.1127992 L5.97513774,17.6332395 C6.00009113,17.7864363 6.035541,17.9491658 6.08192269,18.1222646 C6.72516084,20.5228621 8.70971424,22.0768928 11.1103117,21.4336547 C13.5109092,20.7904165 15.4184933,18.1934907 14.7752551,15.7928932 C14.7288734,15.6197944 14.673187,15.4624872 14.6088787,15.3198356 L23.2666229,13 L27.6219475,13 L27.6219475,13 Z M4.37805246,13 C4.13125901,13.9588598 4,14.9641013 4,16 C4,16.0306374 4.00011482,16.0612481 4.00034404,16.0918315 L15.5392163,13 L4.37805246,13 L4.37805246,13 Z M16,32 C24.836556,32 32,24.836556 32,16 C32,7.163444 24.836556,0 16,0 C7.163444,0 0,7.163444 0,16 C0,24.836556 7.163444,32 16,32 Z M13.990778,23 C13.4435864,23 13,23.4438648 13,24 C13,24.5522847 13.4509752,25 13.990778,25 L18.009222,25 C18.5564136,25 19,24.5561352 19,24 C19,23.4477153 18.5490248,23 18.009222,23 L13.990778,23 Z M21.5,20 C22.8807119,20 24,18.8807119 24,17.5 C24,16.1192881 22.8807119,15 21.5,15 C20.1192881,15 19,16.1192881 19,17.5 C19,18.8807119 20.1192881,20 21.5,20 Z M26.9110232,10.9980562 C26.4507157,9.99560622 25.8563228,9.06750487 25.1508113,8.2367187 C25.0536229,8.47191656 25,8.72969613 25,9 C25,10.0747537 25.8477419,10.9515066 26.9110232,10.9980562 L26.9110232,10.9980562 Z M17.6612351,4.11405636 C17.1182559,4.03886323 16.5636665,4 16,4 C15.4363335,4 14.8817441,4.03886323 14.3387649,4.11405636 C14.6978117,4.64839731 15.3078453,5 16,5 C16.6921547,5 17.3021883,4.64839731 17.6612358,4.11405671 L17.6612351,4.11405636 Z M20,11 C21.1045695,11 22,10.1045695 22,9 C22,7.8954305 21.1045695,7 20,7 C18.8954305,7 18,7.8954305 18,9 C18,10.1045695 18.8954305,11 20,11 Z M13,11 C14.1045695,11 15,10.1045695 15,9 C15,7.8954305 14.1045695,7 13,7 C11.8954305,7 11,7.8954305 11,9 C11,10.1045695 11.8954305,11 13,11 Z M7.42928331,7.60101748 C6.51111065,8.53784572 5.74531227,9.62457281 5.17199724,10.8210896 C5.42430364,10.935991 5.70467677,11 6,11 C7.1045695,11 8,10.1045695 8,9 C8,8.45542161 7.78234603,7.96167903 7.42928331,7.60101748 L7.42928331,7.60101748 Z" id="pirate" fill="#000000" sketch:type="MSShapeGroup"></path>
    </g>
</svg>
