<?xml version="1.0" encoding="UTF-8" standalone="no"?>
<svg width="32px" height="32px" viewBox="0 0 32 32" version="1.1" xmlns="http://www.w3.org/2000/svg" xmlns:xlink="http://www.w3.org/1999/xlink" xmlns:sketch="http://www.bohemiancoding.com/sketch/ns">
    <!-- Generator: Sketch 3.3.3 (12072) - http://www.bohemiancoding.com/sketch -->
    <title>plain</title>
    <desc>Created with Sketch.</desc>
    <defs></defs>
    <g id="Page-1" stroke="none" stroke-width="1" fill="none" fill-rule="evenodd" sketch:type="MSPage">
      <circle cx="16" cy="16" r="14" fill="#FFFFFF"/>
      <path d="M16,32 C24.836556,32 32,24.836556 32,16 C32,7.163444 24.836556,0 16,0 C7.163444,0 0,7.163444 0,16 C0,24.836556 7.163444,32 16,32 Z M16,28 C22.627417,28 28,22.627417 28,16 C28,9.372583 22.627417,4 16,4 C9.372583,4 4,9.372583 4,16 C4,22.627417 9.372583,28 16,28 Z M23.484451,21 C21.8699283,23.4119715 19.1204161,25 16,25 C12.8795839,25 10.1300717,23.4119715 8.51554904,21 L23.484451,21 L23.484451,21 Z M10.5,19 C11.8807119,19 13,17.8807119 13,16.5 C13,15.1192881 11.8807119,14 10.5,14 C9.11928813,14 8,15.1192881 8,16.5 C8,17.8807119 9.11928813,19 10.5,19 Z M21.5,19 C22.8807119,19 24,17.8807119 24,16.5 C24,15.1192881 22.8807119,14 21.5,14 C20.1192881,14 19,15.1192881 19,16.5 C19,17.8807119 20.1192881,19 21.5,19 Z" id="plain" fill="#000000" sketch:type="MSShapeGroup"></path>
    </g>
</svg>
