<?xml version="1.0" encoding="UTF-8" standalone="no"?>
<svg width="32px" height="32px" viewBox="0 0 32 32" version="1.1" xmlns="http://www.w3.org/2000/svg" xmlns:xlink="http://www.w3.org/1999/xlink" xmlns:sketch="http://www.bohemiancoding.com/sketch/ns">
    <!-- Generator: Sketch 3.3.3 (12072) - http://www.bohemiancoding.com/sketch -->
    <title>skull</title>
    <desc>Created with Sketch.</desc>
    <defs></defs>
    <g id="Page-1" stroke="none" stroke-width="1" fill="none" fill-rule="evenodd" sketch:type="MSPage">
        <circle cx="16" cy="16" r="14" fill="#FFFFFF"/>
        <path d="M16,32 C24.836556,32 32,24.836556 32,16 C32,7.163444 24.836556,0 16,0 C7.163444,0 0,7.163444 0,16 C0,24.836556 7.163444,32 16,32 Z M19,27.6219475 C19.6928618,27.4436172 20.361506,27.2049623 21,26.9119156 L21,23.990778 C21,23.4509752 21.4477153,23 22,23 C22.5561352,23 23,23.4435864 23,23.990778 L23,25.7479053 C26.0281373,23.5695489 28,20.015051 28,16 C28,9.372583 22.627417,4 16,4 C9.372583,4 4,9.372583 4,16 C4,20.015051 5.97186274,23.5695489 9,25.7479053 L9,23.990778 C9,23.4509752 9.44771525,23 10,23 C10.5561352,23 11,23.4435864 11,23.990778 L11,26.9119156 L11,26.9119156 C11.638494,27.2049623 12.3071382,27.4436172 13,27.6219475 L13,27.6219475 L13,23.990778 C13,23.4509752 13.4477153,23 14,23 C14.5561352,23 15,23.4435864 15,23.990778 L15,27.9589262 C15.3297334,27.9861287 15.6632468,28 16,28 C16.3367532,28 16.6702666,27.9861287 17,27.9589262 L17,23.990778 C17,23.4509752 17.4477153,23 18,23 C18.5561352,23 19,23.4435864 19,23.990778 L19,27.6219475 Z M10.5,20 C12.4329966,20 14,18.4329966 14,16.5 C14,14.5670034 12.4329966,13 10.5,13 C8.56700338,13 7,14.5670034 7,16.5 C7,18.4329966 8.56700338,20 10.5,20 Z M21.5,20 C23.4329966,20 25,18.4329966 25,16.5 C25,14.5670034 23.4329966,13 21.5,13 C19.5670034,13 18,14.5670034 18,16.5 C18,18.4329966 19.5670034,20 21.5,20 Z" id="skull" fill="#000000" sketch:type="MSShapeGroup"></path>
    </g>
</svg>
