<?xml version="1.0" encoding="UTF-8" standalone="no"?>
<svg width="32px" height="32px" viewBox="0 0 32 32" version="1.1" xmlns="http://www.w3.org/2000/svg" xmlns:xlink="http://www.w3.org/1999/xlink" xmlns:sketch="http://www.bohemiancoding.com/sketch/ns">
    <!-- Generator: Sketch 3.3.3 (12072) - http://www.bohemiancoding.com/sketch -->
    <title>sunny</title>
    <desc>Created with Sketch.</desc>
    <defs></defs>
    <g id="Page-1" stroke="none" stroke-width="1" fill="none" fill-rule="evenodd" sketch:type="MSPage">
      <circle cx="16" cy="16" r="15.99" fill="#FFFFFF"/>
      <path d="M16,32 C24.836556,32 32,24.836556 32,16 C32,7.163444 24.836556,0 16,0 C7.163444,0 0,7.163444 0,16 C0,24.836556 7.163444,32 16,32 Z M16,28 C22.627417,28 28,22.627417 28,16 C28,9.372583 22.627417,4 16,4 C9.372583,4 4,9.372583 4,16 C4,22.627417 9.372583,28 16,28 Z M23.484451,21 C21.8699283,23.4119715 19.1204161,25 16,25 C12.8795839,25 10.1300717,23.4119715 8.51554904,21 L23.484451,21 L23.484451,21 Z M23.9499909,17 C23.9827849,16.838445 24,16.6712329 24,16.5 C24,15.1192881 22.8807119,14 21.5,14 C20.1192881,14 19,15.1192881 19,16.5 C19,16.6712329 19.0172151,16.838445 19.0500091,17 L23.9499909,17 Z M22.9146471,17 C22.9699229,16.8436105 23,16.6753177 23,16.5 C23,15.6715729 22.3284271,15 21.5,15 C20.6715729,15 20,15.6715729 20,16.5 C20,16.6753177 20.0300771,16.8436105 20.0853529,17 L22.9146471,17 L22.9146471,17 Z M12.9499909,17 C12.9827849,16.838445 13,16.6712329 13,16.5 C13,15.1192881 11.8807119,14 10.5,14 C9.11928813,14 8,15.1192881 8,16.5 C8,16.6712329 8.01721513,16.838445 8.05000906,17 L12.9499909,17 Z M11.9146471,17 C11.9699229,16.8436105 12,16.6753177 12,16.5 C12,15.6715729 11.3284271,15 10.5,15 C9.67157288,15 9,15.6715729 9,16.5 C9,16.6753177 9.03007711,16.8436105 9.08535285,17 L11.9146471,17 L11.9146471,17 Z" id="sunny" fill="#000000" sketch:type="MSShapeGroup"></path>
    </g>
</svg>
