<?xml version="1.0" encoding="UTF-8" standalone="no"?>
<svg width="32px" height="32px" viewBox="0 0 32 32" version="1.1" xmlns="http://www.w3.org/2000/svg" xmlns:xlink="http://www.w3.org/1999/xlink" xmlns:sketch="http://www.bohemiancoding.com/sketch/ns">
    <!-- Generator: Sketch 3.3.3 (12072) - http://www.bohemiancoding.com/sketch -->
    <title>vampire</title>
    <desc>Created with Sketch.</desc>
    <defs></defs>
    <g id="Page-1" stroke="none" stroke-width="1" fill="none" fill-rule="evenodd" sketch:type="MSPage">
        <circle cx="16" cy="16" r="14" fill="#FFFFFF"/>
        <path d="M14.3516894,24.7288282 L13.5,27 L12,23 L13.5,23 L18.5,23 L20,23 L18.5,27 L17.6483106,24.7288282 C17.1341657,24.904279 16.5790313,25 16,25 C15.4209687,25 14.8658343,24.904279 14.3516894,24.7288282 Z M16,32 C24.836556,32 32,24.836556 32,16 C32,7.163444 24.836556,0 16,0 C7.163444,0 0,7.163444 0,16 C0,24.836556 7.163444,32 16,32 Z M24.5267682,7.55640805 C26.6739481,9.72460673 28,12.7074454 28,16 C28,22.627417 22.627417,28 16,28 C9.372583,28 4,22.627417 4,16 C4,12.7074454 5.3260519,9.72460673 7.47323176,7.55640805 C8.24118231,7.19934263 9.09731167,7 10,7 C13.3137085,7 16,9.6862915 16,13 C16,9.6862915 18.6862915,7 22,7 C22.9026883,7 23.7588177,7.19934263 24.5267682,7.55640805 L24.5267682,7.55640805 Z M21.5,19 C22.8807119,19 24,17.8807119 24,16.5 C24,15.1192881 22.8807119,14 21.5,14 C20.1192881,14 19,15.1192881 19,16.5 C19,17.8807119 20.1192881,19 21.5,19 Z M10.5,19 C11.8807119,19 13,17.8807119 13,16.5 C13,15.1192881 11.8807119,14 10.5,14 C9.11928813,14 8,15.1192881 8,16.5 C8,17.8807119 9.11928813,19 10.5,19 Z" id="vampire" fill="#000000" sketch:type="MSShapeGroup"></path>
    </g>
</svg>
